# xmcd CD database file
#
# Track frame offsets:
#	180
#	19680
#	33007
#	52284
#	74121
#	88066
#	105228
#	124805
#	138846
#	158030
#	175221
#	196709
#	213761
#	237698
#	255635
#
# Disc length: 3623 seconds
#
# Revision: 1
# Processed by: cddbd v1.4PL0 Copyright (c) Steve Scherf et al.
# Submitted via: CDex 1.40Beta9
#
DISCID=cd0e250f
DTITLE=Various Artist - The Cats Out of the Bag
DYEAR=1994
DGENRE=Blues
TTITLE0=Cajun Lady
TTITLE1=Flight of the Great Snowy Owl
TTITLE2=Boxes of Sawdust
TTITLE3=Blue Eyes in Stormy Weather
TTITLE4=Margaret
TTITLE5=Eighteen Wheels
TTITLE6=Write to Love
TTITLE7=Conversations with you
TTITLE8=All the Past Times are Good Times
TTITLE9=Shadows at My Door
TTITLE10=Mist of Morning
TTITLE11=What is it's Love
TTITLE12=Soldier's Lament
TTITLE13=Watching Time Slip By
TTITLE14=I'm Starting My New Life Tonight
EXTD=YEAR: 1994 ID3G: 0
EXTT0=
EXTT1=
EXTT2=
EXTT3=
EXTT4=
EXTT5=
EXTT6=
EXTT7=
EXTT8=
EXTT9=
EXTT10=
EXTT11=
EXTT12=
EXTT13=
EXTT14=
PLAYORDER=
